# xmcd
#
# Track frame offsets: 
#        150
#        10299
#        20279
#        27461
#        36003
#        45257
#        56039
#        67154
#        78293
#        87270
#        96810
#        105592
#        111376
#        118368
#        126648
#        132817
#        140474
#        150251
#        157676
#        165643
#        173115
#        183207
#        190269
#        197578
#
# Disc length: 2763 seconds
#
# Revision: 0
# Processed by: cddbd v1.5.2PL0 Copyright (c) Steve Scherf et al.
# Submitted via: ExactAudioCopyFreeDBPlugin 1.0
#
DISCID=3b0ac918
DTITLE=Various Artist - Smoky Mountain Bluegrass
DYEAR=2002
DGENRE=Bluegrass
TTITLE0=Don Reno and Bill Harrell w/The Tennessee Cut-up - I'm A Man of 
TTITLE0=Constant Sorrow
TTITLE1=Hylo Brown and The Timberliners - Lonesome Road Blues
TTITLE2=Red Smiley and The Bluegrass Cup-ups - 900 Miles
TTITLE3=Raymond Fairchild - Orange Blossom Special
TTITLE4=Don Reno and Bill Harrell w/Tennessee Cut-up - Long Journey Home
TTITLE5=Red White and The Dixie Bluegrass Band - The Coo Coo Bird
TTITLE6=Earl Taylor and Jim McCall w/The Stoney Mountain Boys - Wanderin
TTITLE6=g Boy
TTITLE7=Hylo Brown and The Timberliners - Under the Double Eagle
TTITLE8=Red Smiley and The Bluegrass Cup-ups - Take This Hammer
TTITLE9=Red White and The Dixie Bluegrass Band - Salty Dog Rag
TTITLE10=The Frosty Mountain Boys w/Raymond Fairchild - Lost To A Stra
TTITLE10=nger
TTITLE11=Tater Tate and Red Smiley w/The Bluegrass Cut-ups - Katy Hill
TTITLE12=Don Reno and Bill Harrell w/ Tennessee Cut-up - Whitehouse Blue
TTITLE12=s
TTITLE13=Red Smiley and The Bluegrass Cup-ups - Little Maggie
TTITLE14=Hylo Brown and The Timberliners - Go Along Mule
TTITLE15=Raymond Fairchild - Raymond's Repeating Banjo
TTITLE16=Don Reno and Bill Harrell w/ Tennessee Cut-up - Worried Man Blu
TTITLE16=es
TTITLE17=Red White and The Dixie Bluegrass Band - Fly Around My Pretty L
TTITLE17=ittle Miss
TTITLE18=Jack Casey - New River Train
TTITLE19=Vasser Clements w/Bobby Smith and The Boys From Shilo - Old Cle
TTITLE19=m
TTITLE20=Jim Greer and The Mac-O-Chee Valley Folks - Brown's Ferry Blues
TTITLE21=The Frosty Mountain Boys w/Raymond Fairchild - Rabbit In The 
TTITLE21=Log
TTITLE22=Roy Ross and His Blue Ridge Mountain Boys - Berry Pickin' Time
TTITLE23=Raymond Fairchild - She'll Be Coming Around The Mountain
EXTD=
EXTT0=
EXTT1=
EXTT2=
EXTT3=
EXTT4=
EXTT5=
EXTT6=
EXTT7=
EXTT8=
EXTT9=
EXTT10=
EXTT11=
EXTT12=
EXTT13=
EXTT14=
EXTT15=
EXTT16=
EXTT17=
EXTT18=
EXTT19=
EXTT20=
EXTT21=
EXTT22=
EXTT23=
PLAYORDER=
